<svg xmlns="http://www.w3.org/2000/svg" width="520" height="210" viewBox="0 0 520 210">
<rect width="100%" height="100%" rx="16" fill="#0b1220"/>
<rect x="1" y="1" width="518" height="208" rx="15" fill="none" stroke="#1f2937"/>
<text x="24" y="38" fill="#e5e7eb" font-size="20" font-weight="700" font-family="Segoe UI, Arial">Monthly Downloads</text>
<text x="24" y="56" fill="#94a3b8" font-size="12" font-family="Segoe UI, Arial">4 months · 175 total downloads</text>
<text x="24" y="88" fill="#e2e8f0" font-size="13" font-family="Segoe UI, Arial">2026-02</text>
<text x="500" y="88" fill="#cbd5e1" font-size="13" text-anchor="end" font-family="Segoe UI, Arial">103</text>
<rect x="110" y="78" width="340" height="10" rx="5" fill="#1f2937"/>
<rect x="106" y="78" width="340" height="10" rx="5" fill="#2563eb"/>
<text x="24" y="120" fill="#e2e8f0" font-size="13" font-family="Segoe UI, Arial">2026-03</text>
<text x="500" y="120" fill="#cbd5e1" font-size="13" text-anchor="end" font-family="Segoe UI, Arial">18</text>
<rect x="110" y="110" width="340" height="10" rx="5" fill="#1f2937"/>
<rect x="106" y="110" width="59" height="10" rx="5" fill="#0ea5e9"/>
<text x="24" y="152" fill="#e2e8f0" font-size="13" font-family="Segoe UI, Arial">2026-06</text>
<text x="500" y="152" fill="#cbd5e1" font-size="13" text-anchor="end" font-family="Segoe UI, Arial">49</text>
<rect x="110" y="142" width="340" height="10" rx="5" fill="#1f2937"/>
<rect x="106" y="142" width="161" height="10" rx="5" fill="#06b6d4"/>
<text x="24" y="184" fill="#e2e8f0" font-size="13" font-family="Segoe UI, Arial">2026-07</text>
<text x="500" y="184" fill="#cbd5e1" font-size="13" text-anchor="end" font-family="Segoe UI, Arial">5</text>
<rect x="110" y="174" width="340" height="10" rx="5" fill="#1f2937"/>
<rect x="106" y="174" width="16" height="10" rx="5" fill="#14b8a6"/>
</svg>